<?xml version="1.0" encoding="UTF-8"?>
<svg width="32px" height="32px" viewBox="0 0 32 32" version="1.1" xmlns="http://www.w3.org/2000/svg">
    <g stroke="none" stroke-width="1" fill="none" fill-rule="evenodd">
        <path d="M29.8846 6.146l-13.142 23.5a.714.714 0 01-1.244.005L2.0966 6.148a.714.714 0 01.746-1.057l13.156 2.352a.714.714 0 00.253 0l12.881-2.348a.714.714 0 01.751 1.05z" fill="#41D1FF"/>
        <path d="M21.6518 3.469l-9.64 16.804a.357.357 0 01-.62 0L2.0966 3.47a.357.357 0 01.373-.529l9.605 1.714a.357.357 0 00.126 0l9.449-1.722a.357.357 0 01.622.526z" fill="#41D1FF"/>
    </g>
</svg> 